<svg id="visual" viewBox="0 0 900 600" width="900" height="600" xmlns="http://www.w3.org/2000/svg" xmlns:xlink="http://www.w3.org/1999/xlink" version="1.1"><rect width="900" height="600" fill="#041720"></rect><g><g transform="translate(756 448)"><path d="M0 -109.1L103.8 -33.7L64.1 88.3L-64.1 88.3L-103.8 -33.7Z" fill="none" stroke="#ff9900" stroke-width="4"></path></g><g transform="translate(196 254)"><path d="M0 -54L51.4 -16.7L31.7 43.7L-31.7 43.7L-51.4 -16.7Z" fill="none" stroke="#ff9900" stroke-width="4"></path></g><g transform="translate(228 484)"><path d="M0 -59L56.1 -18.2L34.7 47.7L-34.7 47.7L-56.1 -18.2Z" stroke="#ff9900" fill="none" stroke-width="4"></path></g><g transform="translate(435 286)"><path d="M0 -71L67.5 -21.9L41.7 57.4L-41.7 57.4L-67.5 -21.9Z" stroke="#ff9900" fill="none" stroke-width="4"></path></g><g transform="translate(784 109)"><path d="M0 -63L59.9 -19.5L37 51L-37 51L-59.9 -19.5Z" stroke="#ff9900" fill="none" stroke-width="4"></path></g></g></svg>